# SGI - INE5420 world export (Wavefront .obj)
o core
v 0 18 0
v -15.5885 9 0
v -15.5885 -9 0
v -0 -18 0
v 15.5885 -9 0
v 15.5885 9 0
l 1 2 3 4 5 6 1
o petal_1
v 0 62 0
v -15.5563 55.5563 0
v -22 40 0
v -15.5563 24.4437 0
v -0 18 0
v 15.5563 24.4437 0
v 22 40 0
v 15.5563 55.5563 0
l 7 8 9 10 11 12 13 14 7
o petal_2
v -34.641 42 0
v -50.1973 35.5563 0
v -56.641 20 0
v -50.1973 4.4437 0
v -34.641 -2 0
v -19.0847 4.4437 0
v -12.641 20 0
v -19.0847 35.5563 0
l 15 16 17 18 19 20 21 22 15
o petal_3
v -34.641 2 0
v -50.1973 -4.4437 0
v -56.641 -20 0
v -50.1973 -35.5563 0
v -34.641 -42 0
v -19.0847 -35.5563 0
v -12.641 -20 0
v -19.0847 -4.4437 0
l 23 24 25 26 27 28 29 30 23
o petal_4
v 0 -18 0
v -15.5563 -24.4437 0
v -22 -40 0
v -15.5563 -55.5563 0
v -0 -62 0
v 15.5563 -55.5563 0
v 22 -40 0
v 15.5563 -24.4437 0
l 31 32 33 34 35 36 37 38 31
o petal_5
v 34.641 2 0
v 19.0847 -4.4437 0
v 12.641 -20 0
v 19.0847 -35.5563 0
v 34.641 -42 0
v 50.1973 -35.5563 0
v 56.641 -20 0
v 50.1973 -4.4437 0
l 39 40 41 42 43 44 45 46 39
o petal_6
v 34.641 42 0
v 19.0847 35.5563 0
v 12.641 20 0
v 19.0847 4.4437 0
v 34.641 -2 0
v 50.1973 4.4437 0
v 56.641 20 0
v 50.1973 35.5563 0
l 47 48 49 50 51 52 53 54 47
