# SGI - INE5420 world export (Wavefront .obj)
o gear
v 60 0 0
v 44.4326 11.9057 0
v 51.9615 30 0
v 32.5269 32.5269 0
v 30 51.9615 0
v 11.9057 44.4326 0
v 0 60 0
v -11.9057 44.4326 0
v -30 51.9615 0
v -32.5269 32.5269 0
v -51.9615 30 0
v -44.4326 11.9057 0
v -60 0 0
v -44.4326 -11.9057 0
v -51.9615 -30 0
v -32.5269 -32.5269 0
v -30 -51.9615 0
v -11.9057 -44.4326 0
v -0 -60 0
v 11.9057 -44.4326 0
v 30 -51.9615 0
v 32.5269 -32.5269 0
v 51.9615 -30 0
v 44.4326 -11.9057 0
l 1 2 3 4 5 6 7 8 9 10 11 12 13 14 15 16 17 18 19 20 21 22 23 24 1
o gear_bore
v 0 18 0
v -6.8883 16.6298 0
v -12.7279 12.7279 0
v -16.6298 6.8883 0
v -18 0 0
v -16.6298 -6.8883 0
v -12.7279 -12.7279 0
v -6.8883 -16.6298 0
v -0 -18 0
v 6.8883 -16.6298 0
v 12.7279 -12.7279 0
v 16.6298 -6.8883 0
v 18 -0 0
v 16.6298 6.8883 0
v 12.7279 12.7279 0
v 6.8883 16.6298 0
l 25 26 27 28 29 30 31 32 33 34 35 36 37 38 39 40 25
