# SGI - INE5420 world export (Wavefront .obj)
o ring_1
v 0 70 0
v -17.2809 23.7851 0
v -66.574 21.6312 0
v -27.9611 -9.0851 0
v -41.145 -56.6312 0
v -0 -29.4 0
v 41.145 -56.6312 0
v 27.9611 -9.0851 0
v 66.574 21.6312 0
v 17.2809 23.7851 0
l 1 2 3 4 5 6 7 8 9 10 1
o ring_2
v -30.5648 42.0689 0
v -20.7711 6.7489 0
v -49.4549 -16.0689 0
v -12.8372 -17.6689 0
v -0 -52 0
v 12.8372 -17.6689 0
v 49.4549 -16.0689 0
v 20.7711 6.7489 0
v 30.5648 42.0689 0
v 0 21.84 0
l 11 12 13 14 15 16 17 18 19 20 11
o ring_3
v -32.3359 10.5066 0
v -13.5811 -4.4128 0
v -19.9847 -27.5066 0
v -0 -14.28 0
v 19.9847 -27.5066 0
v 13.5811 -4.4128 0
v 32.3359 10.5066 0
v 8.3936 11.5528 0
v 0 34 0
v -8.3936 11.5528 0
l 21 22 23 24 25 26 27 28 29 30 21
o ring_4
v -15.2169 -4.9443 0
v -3.9499 -5.4366 0
v -0 -16 0
v 3.9499 -5.4366 0
v 15.2169 -4.9443 0
v 6.3911 2.0766 0
v 9.4046 12.9443 0
v 0 6.72 0
v -9.4046 12.9443 0
v -6.3911 2.0766 0
l 31 32 33 34 35 36 37 38 39 40 31
