# SGI - INE5420 3D sample: the 2D house given depth (y up, front face on z = 30)
# Seen head-on it matches samples/house.obj; orbit to see the walls and roof.
o walls
v -40 -40 -30
v 40 -40 -30
v 40 20 -30
v -40 20 -30
v -40 -40 30
v 40 -40 30
v 40 20 30
v -40 20 30
l 1 2 3 4 1
l 5 6 7 8 5
l 1 5
l 2 6
l 3 7
l 4 8
o roof
v -48 20 -30
v 48 20 -30
v 0 60 -30
v -48 20 30
v 48 20 30
v 0 60 30
l 9 10 11 9
l 12 13 14 12
l 9 12
l 10 13
l 11 14
o door
v -12 -40 30
v 12 -40 30
v 12 0 30
v -12 0 30
l 15 16 17 18 15
o window
v 18 -6 30
v 34 -6 30
v 34 10 30
v 18 10 30
l 19 20 21 22 19
